<?xml version="1.0" standalone="no"?>
<!DOCTYPE svg PUBLIC "-//W3C//DTD SVG 1.1//EN" "http://www.w3.org/Graphics/SVG/1.1/DTD/svg11.dtd" >
<svg xmlns="http://www.w3.org/2000/svg">
<metadata>
Created by FontForge 20120731 at Thu Oct 13 15:25:10 2016
 By admin
</metadata>
<defs>
<font id="iconfont" horiz-adv-x="1024" >
  <font-face 
    font-family="iconfont"
    font-weight="500"
    font-stretch="normal"
    units-per-em="1024"
    panose-1="2 0 6 3 0 0 0 0 0 0"
    ascent="896"
    descent="-128"
    x-height="792"
    bbox="-0.5 -192 1024.5 908.525"
    underline-thickness="50"
    underline-position="-100"
    unicode-range="U+0078-E625"
  />
<missing-glyph horiz-adv-x="374" 
d="M34 0v682h272v-682h-272zM68 34h204v614h-204v-614z" />
    <glyph glyph-name=".notdef" horiz-adv-x="374" 
d="M34 0v682h272v-682h-272zM68 34h204v614h-204v-614z" />
    <glyph glyph-name=".null" horiz-adv-x="0" 
 />
    <glyph glyph-name="nonmarkingreturn" horiz-adv-x="341" 
 />
    <glyph glyph-name="x" unicode="x" horiz-adv-x="1001" 
d="M281 543q-27 -1 -53 -1h-83q-18 0 -36.5 -6t-32.5 -18.5t-23 -32t-9 -45.5v-76h912v41q0 16 -0.5 30t-0.5 18q0 13 -5 29t-17 29.5t-31.5 22.5t-49.5 9h-133v-97h-438v97zM955 310v-52q0 -23 0.5 -52t0.5 -58t-10.5 -47.5t-26 -30t-33 -16t-31.5 -4.5q-14 -1 -29.5 -0.5
t-29.5 0.5h-32l-45 128h-439l-44 -128h-29h-34q-20 0 -45 1q-25 0 -41 9.5t-25.5 23t-13.5 29.5t-4 30v167h911zM163 247q-12 0 -21 -8.5t-9 -21.5t9 -21.5t21 -8.5q13 0 22 8.5t9 21.5t-9 21.5t-22 8.5zM316 123q-8 -26 -14 -48q-5 -19 -10.5 -37t-7.5 -25t-3 -15t1 -14.5
t9.5 -10.5t21.5 -4h37h67h81h80h64h36q23 0 34 12t2 38q-5 13 -9.5 30.5t-9.5 34.5q-5 19 -11 39h-368zM336 498v228q0 11 2.5 23t10 21.5t20.5 15.5t34 6h188q31 0 51.5 -14.5t20.5 -52.5v-227h-327z" />
    <glyph glyph-name="uniE600" unicode="&#xe600;" 
d="M512 792q-100 0 -191 -39t-157 -105t-105 -157t-39 -191t39 -191t105 -157t157 -105t191 -39t191 39t157 105t105 157t39 191q0 134 -66 247t-179 179t-247 66zM368 336q22 30 50.5 49.5t51.5 24.5q43 21 74 23l67 7l-50 59v20l27 23l157 -134v-13l-23 -23l-134 -113
q-2 0 -5 0.5t-10.5 4t-11.5 7.5t-4.5 11.5t6.5 16.5q11 14 22.5 27.5t17.5 19.5l6 5q-71 14 -111 -2q-38 -15 -70 -38t-39 -52l-12 -44l-16 -20l-18 11v23q0 50 9 75q6 18 16 32zM749 102h-411v44h366v92h45v-136z" />
    <glyph glyph-name="uniE601" unicode="&#xe601;" 
d="M967 388l-394 312q-26 20 -61 20t-61 -20l-394 -312q-10 -8 -11.5 -21t6.5 -23t20.5 -11.5t22.5 6.5l12 10v-377q0 -39 33.5 -66.5t72.5 -27.5h623q36 0 58.5 26t22.5 68v375l11 -8q9 -7 20 -7q15 0 24 12q8 10 6.5 23t-11.5 21zM481 -59v172q0 13 31 13t31 -13v-172h-62
zM855 -28q0 -31 -19 -31h-230v1h-1v171q0 30 -24 52.5t-69 22.5t-69 -22.5t-24 -52.5v-171v-1h-206q-15 0 -29 10t-14 21v426l320 253q8 6 21.5 6t21.5 -6l322 -254v-425zM855 -28z" />
    <glyph glyph-name="uniE602" unicode="&#xe602;" 
d="M282 53q-79 0 -135 56t-56 135v435q0 79 56 135t135 56h435q79 0 135 -56t56 -135v-435q0 -79 -56 -135t-135 -56h-435zM289 820q-61 0 -104 -43.5t-43 -103.5v-422q0 -61 43 -104.5t104 -43.5h422q60 0 103 43t44 103v2v422q0 60 -43 103.5t-104 43.5h-422zM282 59
q-77 0 -131 54t-54 131v435q0 77 54 131.5t131 54.5h435q77 0 131.5 -54.5t54.5 -131.5v-435q0 -77 -54.5 -131t-131.5 -54h-435zM289 825q-63 0 -108 -44.5t-45 -107.5v-422q0 -63 45 -108t108 -45h422q62 0 107 44t45 106v3v422q0 63 -44.5 107.5t-107.5 44.5h-422z
M306 508h70v-56h-70v56zM306 508zM306 676h70v-56h-70v56zM306 676zM306 340h70v-56h-70v56zM306 340zM432 508h210v-56h-210v56zM432 508zM432 340h140v-56h-140v56zM432 340zM432 676h294v-56h-294v56zM432 676z" />
    <glyph glyph-name="uniE603" unicode="&#xe603;" 
d="M608 -148h-179h-83q-27 0 -70 2.5t-63.5 8t-44 14.5t-33 24.5t-9.5 36.5v17q0 124 88.5 211t214.5 87h179q126 0 214.5 -87.5t88.5 -210.5v-17q0 -16 -5.5 -28.5t-19.5 -21.5t-27 -15.5t-39 -10.5t-44 -6t-52.5 -3t-54.5 -1h-61zM429 205q-106 0 -180.5 -73t-74.5 -177
v-17q0 -14 21 -22.5t66 -11.5t77 -3.5t91 -0.5h179q52 0 83 0.5t78 3.5t70.5 11.5t23.5 22.5v17q0 104 -74.5 177t-180.5 73h-179zM509.5 276q-99.5 0 -169.5 69.5t-70 167t70 167t169.5 69.5t169.5 -69.5t70 -167t-70 -167t-169.5 -69.5zM318 512.5q0 -77.5 56 -133
t135.5 -55.5t135.5 55.5t56 133t-56 133t-135.5 55.5t-135.5 -55.5t-56 -133z" />
    <glyph glyph-name="uniE604" unicode="&#xe604;" 
d="M197 -17q-32 0 -54 22t-22 53v176q0 10 7 17t17 7t17 -7t7 -17l1 -176q0 -11 8 -19t19 -8l619 1q11 0 19 7.5t8 18.5v179q0 10 7 17.5t17 7.5t17.5 -7.5t7.5 -17.5v-179q0 -31 -22.5 -53t-53.5 -22h-619v0zM237 305q-44 0 -77 17v3v0h-3h-3q-42 23 -66 63t-24 88
q0 27 9 53v1q0 2 1 3l83 196q9 26 32 41t53 15h542q31 0 55.5 -16t33.5 -42l77 -192q1 -1 1 -4v-1l1 -1q8 -26 8 -53q0 -47 -24 -87.5t-66 -63.5q-35 -19 -82 -19q-81 0 -132 61l-7 7l-6 -7q-51 -61 -131 -61t-131 61l-6 7l-7 -7q-51 -61 -131 -62v0zM180 366q24 -12 57 -12
q32 0 59.5 15.5t45.5 42.5v1q4 8 8 13q8 9 24 9q18 0 27 -10v-1q3 -3 6 -10l1 -1q17 -27 44.5 -43t59.5 -16t59.5 16t44.5 43l1 1q3 7 7 11v1q9 10 25 10t25 -10q4 -5 8 -12v-1q17 -28 45 -43.5t61 -15.5q34 1 59 14q30 16 47 45t17 63q0 20 -7 40v3l-1 1l-76 190
q-9 25 -42 27h-1h-542q-31 0 -40 -26l-82 -193v-2q-7 -20 -7 -41q0 -34 17.5 -63t47.5 -45l2 -1v0zM243 508q-10 0 -17 7t-7 17t7 17.5t17 7.5h527q10 0 17 -7.5t7 -17.5t-7 -17t-17 -7h-527zM243 508z" />
    <glyph glyph-name="uniE605" unicode="&#xe605;" 
d="M689 340q17 -16 17 -35.5t-17 -36.5q-12 -12 -28 -15h59v103h-59q16 -3 28 -16zM511 833q-91 0 -174 -35.5t-143 -95.5t-95.5 -143t-35.5 -174t35.5 -173.5t95.5 -142.5t143 -95.5t174 -35.5t173.5 35.5t142.5 95.5t95.5 142.5t35.5 173.5t-35.5 174t-95.5 143
t-142.5 95.5t-173.5 35.5zM765 186q0 -32 -17.5 -50t-49.5 -18h-357q-31 0 -49 18t-18 50v349h36l264 143l37 -52l30 15l61 -106q31 -1 47 -18t16 -49v-282zM698 490h-379v-304q0 -14 4.5 -18t17.5 -4h357q14 0 18 3.5t4 18.5v21h-230q-21 0 -37 16t-16 37v89q0 21 16 36.5
t37 15.5h230v67q0 12 -5 17t-17 5zM568 605l-7 15l-159 -85h27zM652 535l-31 42l-94 -42h125zM645 356h-140q-22 0 -22 -22v-59q0 -22 22 -22h140q-15 3 -28 15q-16 17 -16 36.5t16 35.5q13 13 28 16zM646 304q0 -2 2.5 -4.5t4.5 -2.5t4.5 2.5t2.5 4.5t-2.5 4.5t-4.5 2.5
t-4.5 -2.5t-2.5 -4.5z" />
    <glyph glyph-name="uniE606" unicode="&#xe606;" 
d="M653 427q-6 -2 -10 -6.5t-5.5 -11.5t-2 -11t-0.5 -14v-11q80 4 101 4v53q-9 0 -27.5 1t-28.5 1q-17 0 -27 -5zM324 433q-9 -2 -18 -0.5t-18.5 0t-14.5 -6.5q-3 -10 -4 -27t-2 -20h106v21q0 20 -15 27.5t-34 5.5zM683 506q-2 3 -6.5 16t-8 19.5t-10.5 14t-16 10.5
q-27 4 -138 6q-88 -1 -128 -4q-29 1 -47 -46q-1 -3 -6 -14q-15 -34 -3 -35q5 0 12 2q57 7 195 8q65 1 149 -8q14 -5 15 3.5t-5 19.5l-2 3q0 1 -0.5 2.5t-0.5 2.5zM510 854q-91 0 -174 -35.5t-143 -95.5t-95.5 -143t-35.5 -174t35.5 -174t95.5 -143t143 -95.5t174 -35.5
t174 35.5t143 95.5t95.5 143t35.5 174t-35.5 174t-95.5 143t-143 95.5t-174 35.5zM738 297q-5 -12 -6 -26.5t-0.5 -32t-0.5 -23.5h-64v95h-316q-1 -22 -2.5 -53.5t-1.5 -38.5h-69q-2 17 -1 29t-1 24.5t-7 23.5q-25 29 -23 55q0 7 -0.5 25.5t-0.5 28.5t1.5 24.5t4.5 26.5
q18 23 43 83q3 6 7.5 19.5t9.5 22.5t14 14q61 12 178 14q45 0 121 -8q3 0 17.5 -2t21.5 -3.5t17 -6.5t15 -13q34 -77 46 -98q11 -18 15.5 -40.5t4 -42.5t-0.5 -43q2 -25 -22 -54z" />
    <glyph glyph-name="uniE607" unicode="&#xe607;" 
d="M512 834q-92 0 -175 -35.5t-143.5 -96t-96 -143.5t-35.5 -174.5t35.5 -175t96 -144t143.5 -96t175 -35.5t175 35.5t143.5 96t96 144t35.5 175t-35.5 174.5t-96 143.5t-143.5 96t-175 35.5zM677 464q-14 0 -26 4l-91 -158q32 -30 32 -73q0 -42 -29.5 -71.5t-71.5 -29.5
t-71.5 29.5t-29.5 71.5q0 37 24 65l-56 51q-14 -7 -29 -7q-28 0 -47 19.5t-19 46.5t19 46.5t46.5 19.5t46.5 -19.5t19 -46.5q0 -21 -12 -39l56 -51q24 15 53 15q23 0 44 -10l89 155q-31 26 -31 66q0 35 24.5 59.5t59.5 24.5t59.5 -24.5t24.5 -59.5t-24.5 -59.5t-59.5 -24.5z
" />
    <glyph glyph-name="uniE608" unicode="&#xe608;" 
d="M349 591h100v-22h-100v22zM349 455q26 1 51 2q25 0 49 2v18h-100v-22zM349 535h100v-24h-100v24zM512 838q-92 0 -176 -36t-145 -97t-97 -145t-36 -176t36 -176t97 -145t145 -97t176 -36t176 36t145 97t97 145t36 176t-36 176t-97 145t-145 97t-176 36zM447.5 185
q-20.5 -12 -45 -22t-50 -18.5t-49 -14.5t-42 -9t-28.5 -3q-2 5 -4 12t-4 13q-3 7 -4 14q54 10 94.5 26.5t67.5 33.5q32 19 55 41l43 -49q-13 -12 -33.5 -24zM657.5 407.5q14.5 4.5 26.5 9.5q6 -14 13 -27q5 -11 12 -23t14 -20q-27 -6 -62 -10.5t-75 -7.5q22 -29 57 -56
q27 9 47 23.5t34 28.5q17 17 29 35l78 -48q-19 -17 -41 -31q-19 -13 -43 -25t-50 -17q29 -15 61.5 -27.5t69.5 -20.5q-13 -18 -25 -33q-10 -14 -19 -27q-10 -13 -15 -19q-37 16 -67 33.5t-53.5 34.5t-41 34t-30.5 31v-134h-86v211q-10 0 -19.5 -0.5t-19.5 -1.5l24 -25
q-32 -19 -69 -37q-32 -14 -76 -28.5t-95 -22.5q-2 10 -4 19l-4 15q-2 8 -4 13q22 2 44.5 9.5t43 16t38.5 18.5t32 19q-21 -2 -38 -2h-29q-14 -1 -26 -1l-11 49q32 0 77 2.5t94 7.5v35q-53 -6 -95 -12.5t-72 -11.5q-34 -8 -61 -14l-28 70q16 3 35 5t40 4v142h-47v53h357v-18
q25 3 64.5 7t80.5 3q36 0 61.5 -8t37.5 -21q20 -24 -4 -61q-6 -11 -19 -24t-30 -28q32 -21 62 -49q-8 -8 -20 -19.5t-23 -21.5l-25 -24q-15 18 -30.5 35t-30.5 31q-17 -12 -37 -23q-19 -12 -39 -24q17 4 31.5 8.5zM607 524q-10 7 -18 11l33 38q13 -5 28 -13q13 -5 30 -13.5
t37 -19.5q20 14 29 27q11 14 3 24q-9 12 -35 12h-3q-30 0 -56 -5t-44.5 -10t-29.5 -10t-12 -5l-9 31h-35v-130q12 0 21.5 0.5t16.5 0.5h14v-46q-27 0 -52 -3v-32q23 4 43.5 7t40.5 8l-31 60q21 8 40 16t35 17q-14 11 -25.5 20t-20.5 15z" />
    <glyph glyph-name="uniE609" unicode="&#xe609;" 
d="M512 824q-90 0 -171.5 -34.5t-140.5 -93.5t-93.5 -140.5t-34.5 -171.5t34.5 -171.5t93.5 -140.5t140.5 -93.5t171.5 -34.5t171.5 34.5t140.5 93.5t93.5 140.5t34.5 171.5t-34.5 171.5t-93.5 140.5t-140.5 93.5t-171.5 34.5zM309 613q23 0 39 -14.5t16 -35t-16 -35
t-39 -14.5t-39 14.5t-16 35t16 35t39 14.5zM355 317q-5 -17 -9 -26.5t-8.5 -18.5t-19 -39.5t-31.5 -68.5l-84 52q93 84 112 123q8 20 3.5 34t-15.5 21l-10 7l-64 40l35 53q36 -27 48 -37t36 -34q31 -31 7 -106zM807.5 258.5q-4.5 -42.5 -28 -68t-54.5 -32t-61 -5.5t-50.5 5
t-20.5 5l11 44l39 -10q66 -5 70 50l-1 18v216q0 61 -52.5 70t-156.5 -29l36 -4q-11 -37 -23 -37h172v-47h-93v-46h93v-24h-93v-94q0 2 8 5.5t19.5 8t16.5 8.5l-9 34l50 16l41 -101l-60 -25l-11 40q-67 -51 -182 -48q-22 -1 -37.5 6t-24 17.5t-13.5 25t-6 26.5t0 25t1.5 17.5
t1.5 7.5l2 8h74q0 -7 -1.5 -22t-1 -24t4.5 -16q10 -16 33 -17q1 0 0 -3v105h-117v24h117v46h-19l-46 -46l-32 28q27 29 60 88q-18 -7 -36 -15q-20 -25 -41 -46q0 -1 -13 6.5t-26 15.5l-14 8q25 21 46.5 58t30.5 64l9 26l77 -21q-6 -15 -19 -38q230 65 305 -15q18 -19 21 -39
q1 -4 2 -11.5t3.5 -32.5t4 -52t0 -69t-6 -84.5z" />
    <glyph glyph-name="uniE60A" unicode="&#xe60a;" 
d="M1024 384q0 -104 -40.5 -199t-109 -163.5t-163.5 -109t-199 -40.5t-199 40.5t-163.5 109t-109 163.5t-40.5 199t40.5 199t109 163.5t163.5 109t199 40.5t199 -40.5t163.5 -109t109 -163.5t40.5 -199zM886 376v18q0 18 -13.5 32t-34.5 21.5t-32 10t-19 3.5q-9 34 -27 65
q7 10 14 22t15.5 30.5t8 36t-11.5 28.5l-17 18q-8 7 -21.5 8t-26.5 -2.5t-28.5 -10.5t-24 -12t-16.5 -10q-32 17 -66 27q-2 12 -5.5 25.5t-11 32t-20.5 30t-29 11.5h-18q-14 0 -26.5 -12t-20.5 -31t-12.5 -32t-7.5 -25q-34 -9 -65 -27q-10 7 -21.5 14t-30.5 15.5t-36.5 8
t-29.5 -11.5l-18 -15q-8 -8 -8.5 -22.5t3.5 -28t11.5 -29.5t12.5 -24.5t9 -14.5q-17 -31 -26 -64q-12 -2 -25 -5.5t-32.5 -11t-32 -20.5t-12.5 -30v-18q0 -14 13 -27t33 -21.5t33 -12.5t24 -7q9 -33 26 -63q-5 -7 -9.5 -15.5t-12 -24.5t-11.5 -29.5t-3 -28t9 -22.5l17 -14
q10 -10 26.5 -11.5t30.5 3.5t30 13.5t21.5 12.5t8.5 7l-4 3q32 -19 68 -29q3 -11 7 -23.5t12.5 -32.5t21.5 -33t27 -13h18q15 0 27.5 10.5t19.5 25t12 30t6.5 24.5t1.5 11h-5q36 9 69 27q7 -5 15.5 -10t24 -12t28 -10.5t26 -3t21.5 8.5l19 19q10 10 11 26t-3.5 30t-13 29
t-13 21.5t-7.5 9.5q18 31 28 65q12 3 25 7.5t32 13t30.5 20.5t11.5 26zM722 384q0 -87 -62 -149t-149.5 -62t-149.5 62t-62 149.5t62 149.5t149.5 62t149.5 -62t62 -150zM652 384q0 59 -41.5 100t-100 41t-100 -41t-41.5 -99.5t41.5 -100t100 -41.5t100 41.5t41.5 99.5z
M581 384z" />
    <glyph glyph-name="uniE60B" unicode="&#xe60b;" 
d="M512 596q-13 0 -21.5 -9t-8.5 -21.5t8.5 -21.5t21.5 -9t21.5 8.5t8.5 22.5q0 12 -8.5 21t-21.5 9zM656 410l-23 18q-4 4 -8 -2l-136 -167l-88 73q-5 4 -9 -1l-19 -24q-4 -4 1 -8l116 -95q4 -2 5 1l160 196q5 5 1 9zM512 831q-91 0 -173.5 -35.5t-142.5 -95.5
t-95.5 -142.5t-35.5 -173.5t35.5 -173.5t95.5 -142.5t142.5 -95.5t173.5 -35.5t173.5 35.5t142.5 95.5t95.5 142.5t35.5 173.5t-35.5 173.5t-95.5 142.5t-142.5 95.5t-173.5 35.5zM410 582h33v15q0 12 8 20t19 8h84q11 0 19 -8t8 -20v-15h32v-74h-203v74zM715 162
q0 -8 -5.5 -13.5t-13.5 -5.5h-368q-8 0 -13.5 5.5t-5.5 13.5v378q0 8 5.5 13.5t13.5 5.5h49v-82h270v82h49q8 0 13.5 -5.5t5.5 -13.5v-378z" />
    <glyph glyph-name="uniE60C" unicode="&#xe60c;" 
d="M508.5 847q-93.5 0 -178.5 -36.5t-146.5 -98t-98 -146.5t-36.5 -178.5t36.5 -178.5t98 -146.5t146.5 -98t178.5 -36.5t178.5 36.5t146.5 98t98 146.5t36.5 178.5t-36.5 178.5t-98 146.5t-146.5 98t-178.5 36.5zM706 237q-13 -11 -9 -27l18 -76l-111 44q-5 2 -10 2
q-3 0 -6 -1q-38 -9 -77 -9q-110 0 -189 63t-79 151.5t79 151t189.5 62.5t189 -62.5t78.5 -151.5q0 -85 -73 -147zM337 384.5q0 -16.5 12 -28.5t28.5 -12t28.5 12t12 28.5t-12 28t-28.5 11.5t-28.5 -11.5t-12 -28zM471 384.5q0 -16.5 12 -28.5t28.5 -12t28.5 12t12 28.5
t-12 28t-28.5 11.5t-28.5 -11.5t-12 -28zM605 384.5q0 -16.5 12 -28.5t28.5 -12t28.5 12t12 28.5t-12 28t-28.5 11.5t-28.5 -11.5t-12 -28z" />
    <glyph glyph-name="uniE60D" unicode="&#xe60d;" 
d="M512 816q-90 0 -171.5 -35t-140.5 -94t-94 -140.5t-35 -171.5t35 -171.5t94 -140.5t140.5 -94t171.5 -35t171.5 35t140.5 94t94 140.5t35 171.5t-35 171.5t-94 140.5t-140.5 94t-171.5 35zM282 616h128v-128h-128v128zM410 134h-128v127h128v-127zM344 335l-8 -9l-63 54
l20 23l40 -36l76 76l22 -21zM751 175h-295v45h295v-45zM751 358h-295v46h295v-46zM751 529h-295v46h295v-46z" />
    <glyph glyph-name="uniE60E" unicode="&#xe60e;" 
d="M990 384q0 -97 -38 -185.5t-102 -152.5t-152.5 -102t-185.5 -38t-185.5 38t-152.5 102t-102 152.5t-38 185.5t38 185.5t102 152.5t152.5 102t185.5 38t185.5 -38t152.5 -102t102 -152.5t38 -185.5zM736 621h-421q-17 0 -29.5 -12t-12.5 -30v-420q0 -16 11 -28t27 -14h261
q8 0 14 5l186 187q6 6 6 13v257q0 18 -12.5 30t-29.5 12zM436 243h-63q-10 0 -17.5 7t-7.5 17.5t7.5 18t17.5 7.5h63q10 0 17.5 -7.5t7.5 -18t-7.5 -17.5t-17.5 -7zM682 366h-309q-10 0 -17.5 7.5t-7.5 18t7.5 18t17.5 7.5h309q11 0 18.5 -7.5t7.5 -18t-7.5 -18t-18.5 -7.5z
M682 489h-309q-10 0 -17.5 7.5t-7.5 18t7.5 18t17.5 7.5h309q11 0 18.5 -7.5t7.5 -18t-7.5 -18t-18.5 -7.5z" />
    <glyph glyph-name="uniE60F" unicode="&#xe60f;" 
d="M798 377q0 -134 -87 -237q195 -195 232 -231q21 -20 7 -40q-13 -20 -38 -5q-6 4 -12 11q-24 25 -229 226q-102 -88 -237 -88q-99 0 -183 48.5t-133 132.5t-49 183t49 183t133 133t183 49t183 -49t132.5 -133t48.5 -183zM434 684q-127 0 -217 -90t-90 -217t90 -217
t217 -90t217 90t90 217t-90 217t-217 90z" />
    <glyph glyph-name="uniE610" unicode="&#xe610;" 
d="M336 389q-11 11 -27.5 11t-28 -11.5t-11.5 -27.5t12 -28l162 -161q11 -11 27.5 -11t27.5 11l370 369q11 12 11 28t-11.5 27.5t-27.5 11.5t-28 -11l-342 -342l-134 134v0zM928 427q-1 13 -10.5 20.5t-22 6.5t-20 -10.5t-6.5 -22.5q2 -18 2 -37q0 -97 -48 -179.5
t-131 -130.5t-180 -48t-180 48t-131 130.5t-48 179.5t48 179.5t131 130.5t180 48q108 0 198 -59q10 -7 22 -4.5t19 13t4.5 22.5t-12.5 19q-105 69 -231 69q-114 0 -210 -56t-152.5 -152.5t-56.5 -209.5t56.5 -209.5t152.5 -152.5t210 -56t210 56t152.5 152.5t56.5 209.5
q0 22 -3 43v0z" />
    <glyph glyph-name="uniE611" unicode="&#xe611;" 
d="M204 428l-2 5l-1 7l-1 3v16l2 5l1 7l3 6l2 8l4 7l6 8v5v5l1 7l2 8l2 8l2 4l2 3l3 4l2 3v19l2 10l1 11l3 14l4 14l3 7l3 9l3 8l4 8l4 9l4 9l5 9l7 9l2 6l4 4l6 10l7 9l8 10l9 10l9 10l9 9l12 11l7 7l9 6l9 7l10 6l9 5l11 4l11 6l12 3l11 4l12 4l12 3l13 2l13 2l12 2l13 2
h14h40l13 -1l13 -2l14 -1l13 -3l13 -3l13 -4l14 -3l12 -5l12 -5l13 -5l12 -6l11 -7l12 -7l9 -7l5 -3l4 -3l9 -8l8 -7l7 -8l8 -8l6 -8l7 -9l5 -9l5 -8l6 -9l4 -8l8 -17l3 -9l3 -9l3 -9l3 -8l2 -7l2 -9l4 -15l3 -13l1 -13l2 -10l2 -16l1 -3l1 -3l5 -8l4 -5l3 -6l3 -6l3 -8
l2 -7l3 -8l1 -9l1 -4l1 -5v-5l-1 -4v-6l-1 -5l-3 -10l-2 -6l-2 -6v-1l1 -2l2 -4l12 -18l10 -13l4 -9l6 -9l5 -11l6 -11l6 -13l7 -14l4 -9l4 -8l3 -9l3 -8l2 -9l2 -8l3 -16l2 -16l2 -14v-20l-1 -7l-2 -12l-2 -11l-3 -10l-1 -4l-2 -5l-2 -3l-3 -5l-2 -2l-3 -4l-2 -2l-3 -3
l-3 -1l-3 -2h-3h-3h-3l-4 3l-4 3l-3 2l-2 2l-4 4l-5 7l-3 6l-4 5l-4 6l-5 10l-5 11l-1 1h-1l-2 -2l-1 -3l-3 -3l-4 -11l-5 -15l-8 -18l-5 -9l-6 -10l-7 -10l-8 -11l-3 -5l-5 -5l-10 -10l1 -1l1 -1l5 -3l22 -11l10 -5l9 -6l9 -6l8 -7l4 -3l3 -4l3 -4l2 -4l2 -4l1 -4l1 -4
l1 -5l-1 -3v-3l-1 -3l-1 -3l-1 -2l-2 -3l-4 -5l-3 -4l-3 -4l-2 -2l-7 -4l-6 -4l-8 -4l-7 -3l-9 -4l-5 -1l-4 -2l-10 -2l-11 -2l-10 -2l-12 -2l-11 -1l-12 -1h-38l-14 1l-12 1l-14 2l-13 1l-14 2l-14 3l-14 3l-13 4l-14 5l-13 4l-7 2l-6 2l-4 2l-4 1h-11l-13 1h-7l-8 1l-6 -5
l-7 -4l-10 -5l-11 -6l-7 -3l-7 -3l-15 -6l-9 -2l-8 -3l-13 -2l-7 -1h-8l-9 -1l-10 -1h-40l-22 1l-22 2l-12 1l-21 4l-10 2l-10 3l-10 2l-8 4l-9 3l-7 4l-7 4l-7 5l-2 2l-3 3l-2 2l-2 3l-2 3l-2 3l-2 6l-1 3l-1 4v3l1 4v3l1 4v8v3l2 5l2 4l2 6l2 2l2 2l4 5l3 3l4 2l2 2l5 2
l4 2l4 2l5 2l6 1l6 2h6l6 1l8 1l2 1h1v1l-1 2l-4 2l-10 8l-7 6l-7 6l-8 8l-8 9l-9 11l-4 6l-4 6l-4 7l-4 8l-4 7l-4 8l-3 8l-4 10l-3 8l-2 11l-1 1h-1h-1h-2v-1l-1 -2l-1 -2l-1 -2l-1 -3l-5 -8l-2 -5l-4 -4l-4 -5l-4 -6l-4 -5l-6 -5l-5 -4l-5 -4l-6 -4l-6 -2l-7 -2h-7h-1h-2
l-1 3l-2 1l-3 7l-1 3l-2 5l-1 5l-1 5l-2 11l-1 7v22l1 17l1 8l2 9l1 9l3 9l2 10l3 9l4 10l4 10l5 10l5 10l6 10l6 11l7 9l8 11l6 7l7 9l9 8l3 4l5 5l7 6l6 6l12 10l8 6z" />
    <glyph glyph-name="uniE612" unicode="&#xe612;" 
d="M777 459v111q0 5 -0.5 14.5t-5.5 36t-14 51t-28.5 54.5t-45.5 51t-68.5 36t-95.5 15q-175 0 -235 -150q-23 -57 -23 -108v-111h-110v-515h736v515h-110zM556 175v-121h-74v121q-37 21 -37 63q0 31 22 52.5t52.5 21.5t52 -21.5t21.5 -52.5q0 -42 -37 -63zM703 459h-368
v110q0 15 2.5 32t13 46t28.5 51t54.5 39t85.5 17t85.5 -17t54.5 -38.5t29 -51t13 -46.5t2 -31v-111z" />
    <glyph glyph-name="uniE613" unicode="&#xe613;" 
d="M906 468l-72 16q-8 25 -21 51l39 65q12 20 13.5 40.5t-13.5 38.5l-40 40q-15 15 -39 15t-42 -13l-63 -40q-25 13 -51 22l-16 72q-4 22 -20.5 39t-38.5 17h-56q-22 0 -36.5 -17t-19.5 -39l-18 -72q-28 -9 -54 -23l-65 41q-18 13 -41 13q-25 0 -40 -15l-39 -40
q-15 -18 -14 -38.5t14 -40.5l40 -68q-12 -26 -19 -48l-72 -16q-22 -4 -39 -20.5t-17 -38.5v-56q0 -21 17 -36t39 -20l73 -18q7 -22 18 -45l-40 -68q-13 -19 -14 -39.5t14 -39.5l39 -39q15 -16 40 -16q23 0 41 13l65 41q27 -14 55 -23l17 -71q6 -23 20.5 -39.5t35.5 -16.5h56
q22 0 38.5 17t20.5 38l16 73q26 8 51 21l63 -40q18 -13 42 -13t39 16l40 39q15 19 13.5 39.5t-13.5 39.5l-39 65q12 24 20 48l72 18q23 5 39.5 20t16.5 36v56q0 22 -17 38.5t-38 20.5zM512 205q-74 0 -126.5 52.5t-52.5 126t52.5 126t126.5 52.5t126.5 -52.5t52.5 -126
t-52.5 -126t-126.5 -52.5z" />
    <glyph glyph-name="uniE614" unicode="&#xe614;" 
d="M199 738q35 0 59.5 -22t24.5 -53t-24.5 -53t-59.5 -22t-59.5 22t-24.5 53t24.5 53t59.5 22zM199 738zM269 286q-8 -26 -14 -41t-12.5 -28t-28.5 -59.5t-50 -105.5l-127 79q16 15 40.5 38t71 73.5t59.5 77.5q16 31 5.5 52t-23.5 32t-16 11l-97 61l52 81q56 -41 74 -56.5
t55 -52.5q27 -27 28.5 -69t-17.5 -93zM269 286zM962 197q-5 -48 -26 -81.5t-50 -49.5t-63.5 -24.5t-67.5 -7.5t-60.5 4.5t-44.5 7.5l-16 4l16 67l59 -15q96 -6 106 69q3 20 0 36v330q0 93 -80 107t-240 -45l55 -6q-16 -56 -35 -56h264v-71h-143v-72h143v-36h-143v-144
q0 4 12.5 9t29.5 12t25 13l-13 52l76 24l64 -154l-93 -39l-17 62q-102 -79 -278 -74q-33 -1 -57.5 9t-37 27t-20 37.5t-9 41.5t-1 38t2.5 28t2 10l4 12h113q0 -10 -2.5 -33t-1.5 -37t7 -24q16 -24 51 -26q2 0 -1 -5v161h-179v36h179v72h-28l-71 -72l-50 43q43 45 92 135
q-29 -12 -54 -23q-30 -38 -63 -70q0 -1 -20 10.5t-40 23.5l-21 11q38 32 71 89t47 98l14 40l118 -33q-10 -23 -30 -58q96 28 175.5 38t129.5 5t88.5 -19t57.5 -31t30.5 -35t14 -27.5t2.5 -11.5q2 -6 4 -17.5t6 -50t5.5 -80t0 -105.5t-8.5 -129zM962 197z" />
    <glyph glyph-name="uniE615" unicode="&#xe615;" 
d="M405 267q-15 -9 -27 -10.5t-18 3t-10 10.5t-5.5 10.5t-1.5 5.5l-67 170q-17 54 3 49q9 -3 19 -12q42 -34 73 -55q14 -9 31 -10.5t27 1.5l10 3l441 220q-62 84 -159 133t-209 49q-122 0 -226 -57t-164 -155.5t-60 -214.5q0 -99 45.5 -186.5t125.5 -147.5l-19 -117
q0 -1 -0.5 -3t-0.5 -7.5t2 -7.5t7 -4t14 4q26 13 110 73q80 -30 166 -30q122 0 226 57t164 155.5t60 213.5q0 101 -47 190q-464 -302 -510 -330v0z" />
    <glyph glyph-name="uniE616" unicode="&#xe616;" 
d="M515 -118q-16 1 -50 2.5t-59.5 3.5t-48.5 6q-134 27 -198 121q-57 84 -22 201q2 6 10.5 37.5t14.5 48.5q18 47 37 80q38 65 67 100q27 33 94 96q4 3 13 4t15 -2q65 -25 177 -16q16 1 43.5 7t37.5 7q12 2 20 -6q93 -104 115 -133q25 -32 81 -128q6 -9 20 -49
q44 -128 -23 -235q-48 -77 -123 -113q-35 -16 -70 -21q-19 -2 -151 -11zM505 8q24 0 31.5 5.5t5.5 20.5q-4 29 24 38q3 1 6.5 3t8 4.5t6.5 3.5q42 21 54.5 66.5t-11.5 82.5q-24 38 -75 56q-43 16 -62 29q-14 9 -12.5 19.5t16.5 19.5q6 4 12 6t13 2h12q4 0 11.5 -2t10.5 -3
l12 -4q9 -3 11 -4q28 -9 40 19q14 30 5.5 44t-40.5 18l-6 1q-16 -1 -24 6t-7 24q1 26 -31 25q-2 0 -10.5 0.5t-12.5 0t-9 -4t-8 -10.5q-8 -24 -15 -33.5t-26 -22.5q-1 -1 -4 -2.5t-4 -2.5q-41 -30 -45.5 -78.5t30.5 -80.5q6 -4 13 -8.5t12 -7.5t14 -7t13 -6q6 -3 30.5 -15
t37.5 -19q5 -3 8.5 -11t2.5 -13q-3 -7 -9.5 -14.5t-12.5 -7.5t-22.5 -1.5t-26 -1.5t-22.5 3t-24 11q-13 9 -25 4q-11 -5 -14.5 -14.5t-3 -23.5t-1.5 -20q-2 -4 2.5 -12.5t9.5 -9.5q33 -13 60 -15q13 -2 17 -7t3 -17q-1 -21 4.5 -27t26.5 -6zM350 872q21 -2 22 -2
q21 -6 44 12q24 18 37 23.5t30 1t41 -24.5q20 -18 57 -54q12 -12 28 -1q31 21 80 46q12 5 17.5 0t4.5 -17q-4 -59 -33 -118q-14 -28 -19 -50q-9 -34 -53 -41q-98 -13 -172 0q-52 9 -77 59q-8 18 -25.5 50.5t-22.5 42.5q-16 32 -3 54.5t44 18.5z" />
    <glyph glyph-name="uniE617" unicode="&#xe617;" 
d="M863 509l-244 -60q-24 -4 -39 0t-19.5 13t-5 18t1.5 16l2 7l30 69q-74 31 -140.5 39.5t-114 -1t-87.5 -29t-65 -44t-42.5 -47t-25 -37t-7.5 -15.5q17 78 47 138.5t65 97t78.5 60t83 32.5t83.5 9.5t75.5 -3.5t63.5 -12.5t42.5 -12.5t17.5 -6l29 69q8 14 18 19.5t18.5 4.5
t16 -4.5t12.5 -7.5l4 -4l133 -244q9 -24 2.5 -39t-20.5 -20zM163 256l242 65q26 5 40 1.5t19 -12.5t5.5 -18t-1.5 -16l-1 -7l-29 -70q75 -28 142 -34.5t113.5 3t87 32t63.5 44.5t42 49t24 37t7 16q-55 -287 -278 -338q-125 -28 -270 21l-28 -70q-12 -22 -29 -24t-28.5 5
t-11.5 9l-138 241q-23 42 23 63q5 3 6 3z" />
    <glyph glyph-name="uniE618" unicode="&#xe618;" 
d="M507 893q-104 0 -198 -40.5t-161.5 -108.5t-107.5 -162t-40 -197.5t40.5 -197.5t108.5 -162t162 -108.5t197.5 -40.5t197.5 40.5t162 108.5t108.5 162t40.5 197.5t-40.5 197.5t-108.5 162t-162.5 108.5t-198.5 40.5zM832 521q-310 -327 -349 -367q-23 -19 -44 -18t-34 14
l-221 203q-15 16 -15 38.5t15 38.5t36.5 16t37.5 -16l183 -164l317 333q15 16 37 16t37 -16t15 -38.5t-15 -39.5z" />
    <glyph glyph-name="uniE619" unicode="&#xe619;" 
d="M150.5 745.5q-98.5 -98.5 -133.5 -230t0 -263.5t133 -230t230 -133t263.5 0t230 133.5t133.5 230t0 263.5t-133 230t-230 133t-263.5 0t-230 -133.5zM757 563l-180 -180l180 -180l-60 -60l-180 180l-180 -180l-60 60l180 180l-180 180l60 60l180 -180l180 180z" />
    <glyph glyph-name="uniE61A" unicode="&#xe61a;" 
d="M513.5 869q-100.5 0 -192 -39t-157.5 -105t-105 -157.5t-39 -191.5t39 -191.5t105 -157.5t157.5 -105.5t192 -39.5t191.5 39.5t157.5 105.5t105.5 157.5t39 191.5t-39 191.5t-105.5 157.5t-157.5 105t-191.5 39zM563 38h-112l-234 622h121l152 -444q18 -54 21 -90h3
q6 47 20 87l159 447h116z" />
    <glyph glyph-name="uniE61B" unicode="&#xe61b;" 
d="M887 880h-60v-21h60v21zM766 880h-60v-21h60v21zM646 880h-61v-21h61v21zM525 880h-61v-21h61v21zM404 880h-60v-21h60v21zM283 880h-60v-21h60v21zM162 880h-60v-21h60v21zM42 880h-41v-21h41v21zM21 800h-20v-61h20v61zM21 679h-20v-61h20v61zM21 558h-20v-60h20v60z
M21 437h-20v-60h20v60zM21 316h-20v-60h20v60zM21 196h-20v-61h20v61zM21 75h-20v-61h20v61zM21 -46h-20v-60h20v60zM100 -108h-61v-20h61v20zM221 -108h-61v-20h61v20zM342 -108h-61v-20h61v20zM462 -108h-60v-20h60v20zM583 -108h-60v-20h60v20zM704 -108h-60v-20h60v20z
M825 -108h-61v-20h61v20zM946 -108h-61v-20h61v20zM1008 -70h-20v-58h18h-18h18h2v58zM1008 51h-20v-60h20v60zM1008 172h-20v-60h20v60zM1008 293h-20v-61h20v61zM1008 414h-20v-61h20v61zM1008 534h-20v-60h20v60zM1008 655h-20v-60h20v60zM1008 776h-20v-60h20v60z
M1008 880h-60v-21h40v-22h20v43zM695 388h-178v178h-25v-178h-178v-25h178v-178h25v178h178v25z" />
    <glyph glyph-name="uniE61C" unicode="&#xe61c;" 
d="M509 886q-101 0 -193.5 -39.5t-159.5 -106.5t-106.5 -159.5t-39.5 -193.5t39.5 -193.5t106.5 -159.5t159.5 -106.5t193.5 -39.5t193.5 39.5t159.5 106.5t106.5 159.5t39.5 193.5t-39.5 193.5t-106.5 159.5t-159.5 106.5t-193.5 39.5zM796 307h-284q-24 0 -41 16.5
t-17 40.5v285q0 24 17 40.5t41 16.5t40.5 -16.5t16.5 -40.5v-227h227q24 0 41 -17t17 -41t-17 -40.5t-41 -16.5z" />
    <glyph glyph-name="uniE61D" unicode="&#xe61d;" 
d="M0 896zM0 -68zM0 -7zM0 53zM0 113zM0 173zM0 233zM0 294zM0 354zM0 414zM0 474zM0 535zM0 595zM0 655zM0 715zM0 775zM0 836zM0 -128zM0 896zM964 896zM903 896zM843 896zM783 896zM723 896zM663 896zM602 896zM542 896zM482 896zM422 896zM361 896zM301 896zM241 896z
M181 896zM121 896zM60 896zM1024 896zM910 722h-798q-28 0 -47.5 -18t-19.5 -43v-484q0 -25 19.5 -43t47.5 -18h328v-72h-81v-51h303v51h-82v72h330q28 0 48.5 18t20.5 43v484q0 25 -20.5 43t-48.5 18zM905 232h-786v415h787v-415h-1z" />
    <glyph glyph-name="uniE61E" unicode="&#xe61e;" 
d="M512 874q-102 0 -194.5 -39.5t-159.5 -106.5t-106.5 -159.5t-39.5 -194.5t39.5 -194.5t106.5 -160t159.5 -107t194.5 -39.5t194.5 39.5t159.5 107t106.5 160t39.5 194.5t-39.5 194.5t-106.5 159.5t-159.5 106.5t-194.5 39.5zM750 337l-143 103l56 25q-35 64 -104.5 87.5
t-137.5 -6.5q-72 -31 -100 -104.5t4 -145t105 -99.5t145 4q65 29 95 94l46 -25q-38 -81 -120 -117q-91 -41 -184.5 -5t-134.5 127.5t-5 185t127 134.5q88 38 178 7t134 -115l57 25z" />
    <glyph glyph-name="uniE61F" unicode="&#xe61f;" 
d="M467 75q0 19 13.5 32.5t31.5 13.5t31.5 -13.5t13.5 -32.5q0 -20 -13 -33.5t-32 -13.5t-32 13.5t-13 33.5v0zM328 740h368q17 0 28.5 -12t11.5 -29v-461q0 -17 -11.5 -29.5t-28.5 -12.5h-368q-17 0 -28.5 12.5t-11.5 29.5v461q0 17 11.5 29t28.5 12v0zM199 9q0 -31 21 -53
t51 -22h483q29 0 50 22t21 53v750q0 31 -21 53t-50 22h-483q-30 0 -51 -22t-21 -53v-750z" />
    <glyph glyph-name="uniE620" unicode="&#xe620;" 
d="M510 867q98 0 187.5 -38t154.5 -103t103 -154.5t38 -187.5t-38 -187.5t-103 -154.5t-154.5 -103t-187.5 -38t-187.5 38t-154.5 103t-103 154.5t-38 187.5t38 187.5t103 154.5t154.5 103t187.5 38v0zM546 178v416q0 2 -1 4.5t-5 7.5t-9 7t-13.5 0.5t-17.5 -9.5l-111 -101
h-123q-5 0 -7 -0.5t-6.5 -3t-6.5 -9t-2 -17.5v-179q0 -11 7 -18t16 -7h116l119 -103q12 -13 28 -12.5t16 24.5v0zM776 371q2 54 -21 104t-68 87q-13 10 -28.5 -3.5t-6.5 -25.5q37 -31 57 -72.5t18 -88.5q-5 -85 -77 -144q-11 -13 6.5 -25.5t27.5 -4.5q86 71 92 173v0z
M630 376q-3 -53 -47 -91q-10 -12 5 -24t28 -3q56 49 59 117q4 76 -58 131q-9 7 -20.5 3t-15 -12.5t0.5 -15.5q51 -44 48 -105v0zM630 376z" />
    <glyph glyph-name="uniE621" unicode="&#xe621;" 
d="M659 368q-92 14 -164.5 13t-117.5 -9l-45 -8q24 1 56.5 -0.5t61 -4t53.5 -5.5t40.5 -5t14.5 -2l-191 -140q135 -21 298 3l-2 9q-34 2 -81 6t-77 7l-29 4zM512 748q-91 0 -174 -35.5t-143 -95.5t-95.5 -143t-35.5 -174t35.5 -173.5t95.5 -142.5t143 -95.5t174 -35.5
t173.5 35.5t142.5 95.5t95.5 142.5t35.5 173.5t-35.5 174t-95.5 143t-142.5 95.5t-173.5 35.5zM663 219q27 -2 45 -2q-16 -3 -43 -7l29 -171l-185 97l-186 -97l35 207l-150 146l208 30l93 188l92 -188l208 -30l-150 -146zM802 380z" />
    <glyph glyph-name="uniE622" unicode="&#xe622;" 
d="M512 844q-94 0 -179 -36.5t-146.5 -98t-98 -146.5t-36.5 -178.5t36.5 -178.5t98 -147t146.5 -98.5t179 -36.5t179 36.5t146.5 98t98 147t36.5 179t-36.5 178.5t-98 146.5t-146.5 98t-179 36.5zM705 285q-10 -1 -19.5 14t-13.5 17q-7 -35 -34 -56q4 -3 17.5 -9.5
t20.5 -13.5t6 -19q-1 -22 -33 -31t-69 -7q-33 3 -67 26q-5 -2 -15.5 -8.5t-15.5 -8.5q-21 -9 -53.5 -9.5t-59 9t-28.5 28.5q-1 12 5.5 19.5t21.5 14.5t18 9q-29 21 -34 55q-5 -1 -14 -16t-19 -14q-12 0 -16.5 20t-2.5 43q1 10 4 20.5t9 20.5t10 16t11.5 16t9.5 12
q-2 37 9 51q1 67 46 113q48 48 111 49q64 0 113 -48q34 -33 43 -78q1 -4 1.5 -16t1.5 -19q1 -2 4.5 -8t4.5 -10q1 -5 0.5 -15.5t0.5 -16.5q1 -3 3 -6.5t5.5 -7.5t4.5 -5q28 -35 31 -65q3 -22 -1.5 -43.5t-16.5 -22.5z" />
    <glyph glyph-name="uniE623" unicode="&#xe623;" 
d="M571 384q-8 0 -14 -6.5t-6 -15.5q0 -7 6.5 -13t13.5 -6q11 0 19 6t8 13q0 9 -7.5 15.5t-19.5 6.5v0zM504 482q12 0 19 7t7 19t-7 19t-19 7t-21 -7t-9 -19q0 -11 9 -18.5t21 -7.5v0zM512 832q-91 0 -174.5 -35.5t-143.5 -95.5t-95.5 -143t-35.5 -174.5t35.5 -175
t95.5 -143.5t143.5 -95.5t174.5 -35.5t174.5 35.5t143.5 95.5t95.5 143.5t35.5 175t-35.5 174.5t-95.5 143t-143.5 95.5t-174.5 35.5v0zM427 269q-31 0 -72 12l-74 -37l21 63q-83 58 -83 139q0 74 61 124.5t147 50.5q77 0 136.5 -40.5t72.5 -103.5q-11 2 -20 2
q-74 0 -125 -48.5t-51 -116.5q0 -20 5 -44q-5 -1 -18 -1v0zM732 198l15 -53l-56 31q-53 -11 -63 -11q-73 0 -124 44.5t-51 107t51 106.5t124 44q71 0 124 -44.5t53 -106.5q0 -65 -73 -118v0zM359 534q-12 0 -21.5 -7.5t-9.5 -18.5t9.5 -18.5t21.5 -7.5q11 0 18.5 7.5
t7.5 18.5q0 12 -7.5 19t-18.5 7v0zM686 384q-8 0 -14 -6.5t-6 -15.5q0 -7 6 -13t14 -6q11 0 18.5 6t7.5 13q0 9 -7.5 15.5t-18.5 6.5v0zM686 384z" />
    <glyph glyph-name="uniE624" unicode="&#xe624;" 
d="M512 -76q93 0 178.5 36.5t147 98t98 147t36.5 178.5t-36.5 178.5t-98 147t-147 98t-178.5 36.5t-178.5 -36.5t-147 -98t-98 -147t-36.5 -178.5t36.5 -178.5t98 -147t147 -98t178.5 -36.5zM610 462l-199 196q40 17 98 17q25 0 49.5 -4.5t36.5 -8.5l12 -4v-196h3zM637 367
v277q41 -17 81 -57q18 -18 32.5 -38.5t19.5 -31.5l6 -11zM590 286l196 199q17 -40 17 -98q0 -27 -4.5 -51.5t-8.5 -35.5l-4 -11h-196v-3zM495 262h277q-17 -40 -57 -81q-18 -19 -37.5 -34.5t-30.5 -20.5l-10 -6zM414 310l199 -196q-40 -17 -98 -17q-25 0 -49.5 4t-36.5 8
l-12 5v196h-3zM390 401v-277q-40 17 -81 57q-18 18 -32.5 38.5t-19.5 31.5l-5 11zM438 482l-196 -199q-17 40 -17 98q0 27 4 51.5t8 35.5l5 11h196v3zM529 509h-277q17 41 57 81q18 18 38.5 32.5t31.5 19.5l11 6zM529 509z" />
    <glyph glyph-name="uniE625" unicode="&#xe625;" 
d="M902.5 614.5q-10.5 10.5 -25.5 10.5t-26 -11l-453 -453l-216 231q-11 11 -25.5 11.5t-25.5 -9.5t-11.5 -25t9.5 -26l243 -259q10 -11 26 -11q14 0 24 9q4 4 7 9l473 472q11 11 11 26t-10.5 25.5z" />
  </font>
</defs>
</svg>
